<svg width="32" height="32" viewBox="0 0 32 32" fill="none" xmlns="http://www.w3.org/2000/svg">
<path d="M16.0966 4.80005C15.0441 4.84324 14.0453 5.44508 13.5152 6.3555L4.41418 21.9762C4.00164 22.696 3.89192 23.5501 4.10915 24.3508C4.32638 25.1514 4.85275 25.8329 5.57249 26.2455C6.29223 26.658 7.14637 26.7677 7.947 26.5505C8.7476 26.3332 9.4292 25.8069 9.84168 25.0872L16.1628 14.1328C16.411 10.3434 16.0966 7.81876 16.0966 4.80005Z" fill="white" fill-opacity="0.8"/>
<path d="M27.9115 21.9761L18.9097 6.38846C18.6418 5.92862 18.2612 5.54456 17.8037 5.27244C17.3464 5.00032 16.8272 4.8491 16.2952 4.83301C16.4111 7.4475 15.5837 8.27486 15.17 12.4117L22.5171 25.1863C22.9293 25.8973 23.6049 26.4173 24.3976 26.6341C25.1904 26.8509 26.0365 26.7469 26.7532 26.3446C27.4584 25.8937 27.9666 25.1924 28.1754 24.3817C28.3842 23.5712 28.2781 22.7116 27.8784 21.9761" fill="white"/>
<path d="M17.7513 5.23028C17.3052 4.97761 16.807 4.83044 16.2952 4.80005H16.0635C15.549 4.81487 15.0472 4.96313 14.6073 5.23028C14.2509 5.4345 13.9382 5.70694 13.6871 6.03202C13.436 6.35712 13.2513 6.7285 13.1438 7.12495C13.0362 7.5214 13.0078 7.93516 13.0602 8.34261C13.1126 8.75005 13.2447 9.14317 13.449 9.49949L16.1628 14.1989L18.8765 9.49949C19.0878 9.14661 19.2264 8.75493 19.2841 8.34773C19.3419 7.94044 19.3176 7.52574 19.2128 7.128C19.108 6.73025 18.9246 6.35747 18.6736 6.03158C18.4227 5.70568 18.1091 5.43324 17.7513 5.23028Z" fill="white"/>
<path d="M19.4062 23.5647C19.4062 24.1996 19.2178 24.8203 18.8651 25.3482C18.5124 25.8761 18.011 26.2876 17.4244 26.5306C16.8378 26.7735 16.1924 26.8371 15.5697 26.7132C14.947 26.5894 14.375 26.2836 13.926 25.8347C13.477 25.3857 13.1713 24.8137 13.0474 24.191C12.9235 23.5683 12.9871 22.9228 13.2301 22.3363C13.473 21.7496 13.8846 21.2483 14.4124 20.8955C14.9403 20.5428 15.561 20.3545 16.1959 20.3545C17.0474 20.3545 17.8638 20.6927 18.4658 21.2947C19.0679 21.8968 19.4062 22.7133 19.4062 23.5647Z" fill="#F5D39A"/>
</svg>
