<svg width="144" height="48" viewBox="0 0 144 48" fill="none" xmlns="http://www.w3.org/2000/svg">
<path d="M24.145 7.19995C22.5661 7.26474 21.0679 8.1675 20.2728 9.53314L6.62127 32.9642C6.00246 34.0438 5.83788 35.3251 6.16372 36.526C6.48957 37.727 7.27913 38.7493 8.35873 39.3681C9.43835 39.9868 10.7196 40.1515 11.9205 39.8257C13.1214 39.4997 14.1438 38.7103 14.7625 37.6306L24.2442 21.199C24.6166 15.515 24.145 11.728 24.145 7.19995Z" fill="white" fill-opacity="0.8"/>
<path d="M41.867 32.9645L28.3644 9.58294C27.9625 8.89318 27.3916 8.31708 26.7054 7.9089C26.0194 7.50072 25.2407 7.27389 24.4427 7.24976C24.6164 11.1715 23.3754 12.4125 22.7549 18.6179L33.7754 37.7797C34.3938 38.8461 35.4072 39.6263 36.5963 39.9513C37.7854 40.2765 39.0546 40.1205 40.1297 39.5172C41.1875 38.8409 41.9497 37.7888 42.2629 36.5729C42.5761 35.357 42.417 34.0676 41.8175 32.9645" fill="white"/>
<path d="M26.627 7.8453C25.9578 7.46629 25.2105 7.24554 24.4428 7.19995H24.0952C23.3235 7.22219 22.5709 7.44457 21.911 7.8453C21.3764 8.15162 20.9073 8.56028 20.5306 9.04792C20.154 9.53556 19.877 10.0926 19.7157 10.6873C19.5543 11.282 19.5117 11.9026 19.5903 12.5138C19.6689 13.125 19.867 13.7146 20.1735 14.2491L24.2442 21.2983L28.3148 14.2491C28.6317 13.7198 28.8396 13.1323 28.9262 12.5215C29.0128 11.9105 28.9764 11.2885 28.8192 10.6919C28.662 10.0953 28.3869 9.53609 28.0105 9.04724C27.634 8.5584 27.1636 8.14974 26.627 7.8453Z" fill="white"/>
<path d="M29.1092 35.3471C29.1092 36.2994 28.8267 37.2304 28.2976 38.0223C27.7685 38.8141 27.0165 39.4314 26.1365 39.7959C25.2567 40.1603 24.2885 40.2556 23.3544 40.0698C22.4204 39.8841 21.5624 39.4254 20.8889 38.752C20.2155 38.0785 19.7568 37.2205 19.5711 36.2865C19.3852 35.3524 19.4806 34.3842 19.845 33.5044C20.2095 32.6244 20.8268 31.8724 21.6185 31.3433C22.4104 30.8142 23.3415 30.5317 24.2938 30.5317C25.571 30.5317 26.7957 31.0391 27.6987 31.9421C28.6018 32.8452 29.1092 34.0699 29.1092 35.3471Z" fill="#F5D39A"/>
<path d="M52.3965 33.5H57.6602L58.8906 29.166H65.3301L66.5605 33.5H71.8242L65.1797 13.7715H59.041L52.3965 33.5ZM62.0625 18.0645H62.1582L64.291 25.5566H59.9297L62.0625 18.0645ZM73.3965 33.5H78.25V25.5977C78.25 23.4785 79.3574 22.3574 81.3945 22.3574C81.9688 22.3574 82.5293 22.4668 82.9395 22.6309V18.4883C82.5703 18.3652 82.1465 18.2969 81.6816 18.2969C79.9316 18.2969 78.7559 19.3633 78.3457 21.25H78.25V18.6113H73.3965V33.5ZM91.375 33.8145C92.3867 33.8145 93.1113 33.7324 93.6445 33.6367V30.1914C93.3711 30.2324 93.125 30.2598 92.7422 30.2598C91.5527 30.2598 90.9785 29.7812 90.9785 28.4961V22.166H93.6445V18.6113H90.9785V15.1797H86.125V18.6113H84.1016V22.166H86.125V29.1523C86.125 32.5156 87.7656 33.8145 91.375 33.8145ZM102.709 33.8145C107.398 33.8145 110.324 30.9844 110.324 26.0625V26.0352C110.324 21.1816 107.344 18.2969 102.709 18.2969C98.0879 18.2969 95.0938 21.209 95.0938 26.0352V26.0625C95.0938 30.9707 97.9922 33.8145 102.709 33.8145ZM102.723 30.1367C101.041 30.1367 100.016 28.6875 100.016 26.0625V26.0352C100.016 23.4648 101.068 21.9746 102.709 21.9746C104.35 21.9746 105.416 23.4648 105.416 26.0352V26.0625C105.416 28.6738 104.377 30.1367 102.723 30.1367ZM112.307 33.5H117.146V28.9199L118.021 27.8672L121.645 33.5H127.223L121.658 24.9824L126.908 18.6113H121.508L117.242 24.2578H117.146V13.7715H112.307V33.5ZM133.088 33.8145C135.344 33.8145 136.861 32.748 137.613 30.875H137.709V33.5H142.549V18.6113H137.709V27.0605C137.709 28.7148 136.738 29.877 135.207 29.877C133.607 29.877 132.814 28.8652 132.814 27.1562V18.6113H127.961V28.1953C127.961 31.7227 129.82 33.8145 133.088 33.8145Z" fill="white"/>
</svg>
