<svg width="307" height="307" viewBox="0 0 307 307" fill="none" xmlns="http://www.w3.org/2000/svg">
<g opacity="0.12">
<path d="M154.427 46.0505C144.329 46.4649 134.747 52.2388 129.661 60.9732L42.3485 210.834C38.3907 217.74 37.3381 225.934 39.4221 233.615C41.5062 241.296 46.5561 247.835 53.4611 251.793C60.3661 255.75 68.5605 256.803 76.2415 254.719C83.9223 252.635 90.4614 247.585 94.4186 240.68L155.062 135.586C157.443 99.2321 154.427 75.0113 154.427 46.0505Z" fill="white" fill-opacity="0.8"/>
<path d="M267.775 210.834L181.415 61.2894C178.844 56.8778 175.192 53.1932 170.804 50.5825C166.416 47.9719 161.436 46.521 156.332 46.3667C157.443 71.4495 149.506 79.387 145.537 119.075L216.023 241.631C219.978 248.452 226.459 253.441 234.064 255.521C241.669 257.601 249.787 256.603 256.663 252.744C263.429 248.418 268.304 241.689 270.307 233.912C272.31 226.136 271.293 217.889 267.458 210.834" fill="white"/>
<path d="M170.302 50.1781C166.021 47.754 161.242 46.3421 156.332 46.0505H154.109C149.173 46.1928 144.36 47.6151 140.139 50.1781C136.72 52.1373 133.72 54.751 131.31 57.8698C128.901 60.9887 127.13 64.5516 126.098 68.355C125.066 72.1585 124.794 76.128 125.296 80.037C125.799 83.9458 127.066 87.7173 129.026 91.1358L155.062 136.221L181.097 91.1358C183.124 87.7503 184.453 83.9927 185.007 80.0861C185.561 76.1787 185.328 72.2002 184.322 68.3843C183.317 64.5684 181.558 60.9921 179.15 57.8655C176.743 54.7389 173.734 52.1252 170.302 50.1781V50.1781Z" fill="white"/>
<path d="M186.178 226.074C186.178 232.165 184.371 238.119 180.987 243.184C177.603 248.249 172.793 252.197 167.165 254.528C161.538 256.859 155.346 257.468 149.372 256.28C143.397 255.092 137.91 252.158 133.602 247.851C129.295 243.544 126.362 238.056 125.174 232.082C123.985 226.108 124.595 219.916 126.926 214.288C129.257 208.66 133.205 203.85 138.269 200.466C143.334 197.083 149.289 195.276 155.38 195.276C163.548 195.276 171.381 198.521 177.157 204.296C182.933 210.073 186.178 217.906 186.178 226.074V226.074Z" fill="#F5D39A"/>
</g>
</svg>
