<svg width="36" height="24" viewBox="0 0 36 24" fill="none" xmlns="http://www.w3.org/2000/svg">
<path d="M13.1326 3.23511H22.8664V20.765H13.1326V3.23511Z" fill="#FF5F00"/>
<path d="M13.7508 12.0001C13.7508 8.43843 15.4194 5.27926 17.9841 3.23509C16.0993 1.74849 13.72 0.850342 11.1243 0.850342C4.97477 0.850342 -0.000244141 5.83669 -0.000244141 12.0001C-0.000244141 18.1634 4.97477 23.1499 11.1242 23.1499C13.7198 23.1499 16.0992 22.2517 17.9841 20.765C15.4194 18.7518 13.7508 15.5618 13.7508 12.0001Z" fill="#EB001B"/>
<path d="M35.9998 12.0001C35.9998 18.1634 31.0248 23.1499 24.8754 23.1499C22.2797 23.1499 19.9003 22.2517 18.0154 20.765C20.6111 18.7209 22.2488 15.5618 22.2488 12.0001C22.2488 8.43843 20.5801 5.27926 18.0154 3.23509C19.9002 1.74849 22.2797 0.850342 24.8754 0.850342C31.0248 0.850342 35.9999 5.86773 35.9999 12.0001H35.9998Z" fill="#F79E1B"/>
</svg>
