<svg width="20" height="20" viewBox="0 0 20 20" fill="none" xmlns="http://www.w3.org/2000/svg">
<path d="M8.30009 4.43945H8.30008V4.44175V6.02508C8.30008 6.84955 8.08357 7.39698 7.74028 7.74028C7.39699 8.08357 6.84955 8.30008 6.02508 8.30008H4.44175C3.61728 8.30008 3.06984 8.08357 2.72655 7.74028C2.38326 7.39698 2.16675 6.84955 2.16675 6.02508V4.44175C2.16675 3.61729 2.38324 3.07013 2.7272 2.72695C3.07134 2.38357 3.62086 2.16675 4.45008 2.16675H6.03341C6.85806 2.16675 7.40512 2.38334 7.74718 2.72616C8.08903 3.06877 8.30387 3.61541 8.30009 4.43945Z" fill="#888888" stroke="#888888"/>
<path d="M13.975 2.16675H15.5583C16.3828 2.16675 16.9302 2.38326 17.2735 2.72655C17.6168 3.06984 17.8333 3.61728 17.8333 4.44175V6.02508C17.8333 6.84955 17.6168 7.39698 17.2735 7.74028C16.9302 8.08357 16.3828 8.30008 15.5583 8.30008H13.975C13.1505 8.30008 12.603 8.08357 12.2598 7.74028C11.9165 7.39698 11.7 6.84955 11.7 6.02508V4.44175C11.7 3.61728 11.9165 3.06984 12.2598 2.72655C12.603 2.38326 13.1505 2.16675 13.975 2.16675Z" fill="#888888" stroke="#888888"/>
<path d="M13.975 11.6917H15.5583C16.3828 11.6917 16.9302 11.9082 17.2735 12.2515C17.6168 12.5947 17.8333 13.1422 17.8333 13.9667V15.55C17.8333 16.3745 17.6168 16.9219 17.2735 17.2652C16.9302 17.6085 16.3828 17.825 15.5583 17.825H13.975C13.1505 17.825 12.603 17.6085 12.2598 17.2652C11.9165 16.9219 11.7 16.3745 11.7 15.55V13.9667C11.7 13.1422 11.9165 12.5947 12.2598 12.2515C12.603 11.9082 13.1505 11.6917 13.975 11.6917Z" fill="#888888" stroke="#888888"/>
<path d="M8.30009 13.9727H8.30008V13.975V15.5583C8.30008 16.3828 8.08357 16.9302 7.74028 17.2735C7.39699 17.6168 6.84955 17.8333 6.02508 17.8333H4.44175C3.61729 17.8333 3.07013 17.6168 2.72695 17.2729C2.38357 16.9287 2.16675 16.3792 2.16675 15.55V13.9667C2.16675 13.1422 2.38324 12.595 2.7272 12.2518C3.07134 11.9085 3.62086 11.6917 4.45008 11.6917H6.03341C6.85806 11.6917 7.40483 11.9082 7.74678 12.2517C8.08871 12.5952 8.30387 13.1439 8.30009 13.9727Z" fill="#888888" stroke="#888888"/>
</svg>
